<svg width="300.5" height="37.5" viewBox="0 0 300.5 37.5" xmlns="http://www.w3.org/2000/svg"><g id="svgGroup" stroke-linecap="round" fill-rule="evenodd" font-size="9pt" stroke="#000" stroke-width="0.25mm" fill="black" style="stroke:#000;stroke-width:0.25mm;fill:black"><path d="M 0 37.5 L 0 12.9 L 7.3 12.9 L 7.3 30.85 L 29.4 30.85 A 4.317 4.317 0 0 0 30.25 30.772 Q 31.316 30.558 31.775 29.75 Q 32.4 28.65 32.4 26.95 L 32.4 12.85 Q 32.491 9.497 30.118 9.183 A 3.941 3.941 0 0 0 29.6 9.15 L 0 9.15 L 0 2.5 L 31.75 2.5 A 8.706 8.706 0 0 1 35.354 3.294 A 10.032 10.032 0 0 1 35.475 3.35 Q 37.3 4.2 38.475 5.825 Q 39.65 7.45 39.7 9.55 L 39.7 29.15 A 9.228 9.228 0 0 1 39.17 32.105 A 8.446 8.446 0 0 1 38.575 33.4 Q 37.5 35.3 35.65 36.4 A 7.885 7.885 0 0 1 32.101 37.478 A 9.615 9.615 0 0 1 31.45 37.5 L 0 37.5 Z M 50.65 12.5 L 74.15 12.5 L 74.15 37.5 L 66.85 37.5 L 66.85 19.15 L 52.8 19.15 A 3.21 3.21 0 0 0 51.574 19.366 Q 49.924 20.044 50 22.85 L 50 26.95 A 7.6 7.6 0 0 0 50.087 28.138 Q 50.188 28.773 50.404 29.297 A 4.031 4.031 0 0 0 50.625 29.75 Q 51.181 30.729 52.627 30.837 A 5.006 5.006 0 0 0 53 30.85 L 63.5 30.85 L 63.5 37.5 L 51 37.5 A 8.579 8.579 0 0 1 48.39 37.113 A 7.601 7.601 0 0 1 46.8 36.4 Q 44.95 35.3 43.85 33.4 Q 42.75 31.5 42.7 29.15 L 42.7 19.55 Q 42.75 17.45 43.925 15.825 Q 45.1 14.2 46.925 13.35 A 8.852 8.852 0 0 1 50.029 12.523 A 8.432 8.432 0 0 1 50.65 12.5 Z M 100.1 12.5 L 123.6 12.5 L 123.6 37.5 L 116.3 37.5 L 116.3 19.15 L 102.25 19.15 A 3.21 3.21 0 0 0 101.024 19.366 Q 99.374 20.044 99.45 22.85 L 99.45 26.95 A 7.6 7.6 0 0 0 99.537 28.138 Q 99.638 28.773 99.854 29.297 A 4.031 4.031 0 0 0 100.075 29.75 Q 100.631 30.729 102.077 30.837 A 5.006 5.006 0 0 0 102.45 30.85 L 112.95 30.85 L 112.95 37.5 L 100.45 37.5 A 8.579 8.579 0 0 1 97.84 37.113 A 7.601 7.601 0 0 1 96.25 36.4 Q 94.4 35.3 93.3 33.4 Q 92.2 31.5 92.15 29.15 L 92.15 19.55 Q 92.2 17.45 93.375 15.825 Q 94.55 14.2 96.375 13.35 A 8.852 8.852 0 0 1 99.479 12.523 A 8.432 8.432 0 0 1 100.1 12.5 Z M 190.75 12.5 L 214.25 12.5 L 214.25 37.5 L 206.95 37.5 L 206.95 19.15 L 192.9 19.15 A 3.21 3.21 0 0 0 191.674 19.366 Q 190.024 20.044 190.1 22.85 L 190.1 26.95 A 7.6 7.6 0 0 0 190.187 28.138 Q 190.288 28.773 190.504 29.297 A 4.031 4.031 0 0 0 190.725 29.75 Q 191.281 30.729 192.727 30.837 A 5.006 5.006 0 0 0 193.1 30.85 L 203.6 30.85 L 203.6 37.5 L 191.1 37.5 A 8.579 8.579 0 0 1 188.49 37.113 A 7.601 7.601 0 0 1 186.9 36.4 Q 185.05 35.3 183.95 33.4 Q 182.85 31.5 182.8 29.15 L 182.8 19.55 Q 182.85 17.45 184.025 15.825 Q 185.2 14.2 187.025 13.35 A 8.852 8.852 0 0 1 190.129 12.523 A 8.432 8.432 0 0 1 190.75 12.5 Z M 282 15.45 L 285.85 20 L 300.5 37.5 L 291.4 37.5 L 281.3 25.45 L 271.15 37.5 L 262 37.5 L 276.7 20 L 262 2.5 L 271.15 2.5 L 282 15.45 Z M 87.45 30.85 L 89.15 30.85 L 89.15 37.5 L 85.45 37.5 Q 83.1 37.5 81.2 36.4 Q 79.3 35.3 78.225 33.4 A 8.37 8.37 0 0 1 77.159 29.588 A 10.007 10.007 0 0 1 77.15 29.15 L 77.15 0 L 84.45 0 L 84.45 9.8 L 87.9 9.8 L 87.9 17.1 L 84.45 17.1 L 84.45 26.95 A 7.6 7.6 0 0 0 84.537 28.138 Q 84.638 28.773 84.854 29.297 A 4.031 4.031 0 0 0 85.075 29.75 Q 85.631 30.729 87.077 30.837 A 5.006 5.006 0 0 0 87.45 30.85 Z M 121.1 9.85 L 121.1 2.5 L 160.75 2.5 L 160.75 9.85 L 121.1 9.85 Z M 166.55 12.45 L 179.8 12.45 L 179.8 19.1 L 168.55 19.1 A 4.414 4.414 0 0 0 167.7 19.176 Q 167.233 19.268 166.883 19.47 A 1.914 1.914 0 0 0 166.175 20.175 A 4.188 4.188 0 0 0 165.748 21.245 Q 165.55 22.016 165.55 23 L 165.55 37.5 L 158.25 37.5 L 158.25 20.8 A 8.842 8.842 0 0 1 158.713 17.909 A 8.09 8.09 0 0 1 159.325 16.55 Q 160.4 14.65 162.3 13.55 A 8.242 8.242 0 0 1 166.186 12.457 A 9.823 9.823 0 0 1 166.55 12.45 Z M 248.7 19.15 L 238.2 19.15 L 238.2 12.5 L 250.7 12.5 A 8.579 8.579 0 0 1 253.31 12.887 A 7.601 7.601 0 0 1 254.9 13.6 Q 256.75 14.7 257.85 16.6 Q 258.95 18.5 259 20.85 L 259 37.5 L 251.7 37.5 L 251.7 23.05 Q 251.7 21.3 251.075 20.225 Q 250.531 19.289 249.134 19.168 A 5.029 5.029 0 0 0 248.7 19.15 Z M 224.55 37.5 L 217.25 37.5 L 217.25 12.5 L 224.55 12.5 L 224.55 37.5 Z M 234.85 37.5 L 227.55 37.5 L 227.55 12.5 L 234.85 12.5 L 234.85 37.5 Z M 137.3 37.5 L 137.3 13.6 L 144.6 13.6 L 144.6 37.5 L 137.3 37.5 Z M 291.4 2.5 L 300.5 2.5 L 287.75 17.7 L 283.2 12.25 L 291.4 2.5 Z M 224.55 2.5 L 224.55 9.5 L 217.25 9.5 L 217.25 2.5 L 224.55 2.5 Z" vector-effect="non-scaling-stroke"/></g></svg>